<svg preserveAspectRatio="none" overflow="visible" style="display: block;" width="25.8816" height="40.1372" viewBox="0 0 25.8816 40.1372" fill="none" xmlns="http://www.w3.org/2000/svg">
<path id="Vector 13" d="M1 1C1 1.04951 1.00725 2.58423 1.43125 6.55119C1.69618 9.02991 2.67404 12.3695 3.63097 15.1951C4.58789 18.0207 5.65067 20.2096 7.03764 22.5089C8.42461 24.8082 10.1036 27.1516 11.7375 29.0647C13.3714 30.9778 14.9095 32.3896 16.1518 33.3773C17.3942 34.365 18.2943 34.8859 19.5693 35.4927C20.8443 36.0995 22.4668 36.7765 23.2344 37.1681C24.0021 37.5596 23.8656 37.6452 23.5018 37.7356C20.6219 38.4512 17.7221 39.1206 17.5587 39.1359C17.0948 39.1795 21.1291 38.128 23.2581 37.7023C23.5086 37.6522 23.803 37.6899 23.9611 37.6123C25.5448 36.8349 24.5263 31.9609 24.8715 31.0132C24.6882 31.5405 24.1768 32.8497 23.5893 35.6349C23.4969 36.229 23.4965 36.496 23.6247 36.9843" stroke="black" stroke-width="2" stroke-linecap="round" stroke-linejoin="round"/>
</svg>
